<svg width="88" height="48" viewBox="0 0 88 48" fill="none" xmlns="http://www.w3.org/2000/svg">
<path d="M63.9814 24.9888L67.3759 20.3576C66.2621 20.099 65.2036 19.646 64.2497 19.0196C63.3067 18.308 62.7794 17.1775 62.8434 16.0029C62.795 14.8174 63.3714 13.6916 64.3644 13.0319C65.6841 12.2514 67.2113 11.8851 68.7448 11.9811C74.7118 11.9811 76.2655 15.0954 77.3209 16.4133L80.5212 12.047C79.9798 11.172 79.2958 10.393 78.4963 9.74261C76.2679 7.91369 72.9864 7 68.652 7C64.8378 7 61.8567 7.83006 59.7078 9.49096C57.5971 11.0667 56.3928 13.5654 56.481 16.1864C56.481 20.6286 58.9808 23.4332 63.9814 24.9888ZM80.433 24.7542C78.9378 23.4324 76.6212 22.3972 73.4833 21.6484L70.0505 26.3307C71.8461 26.6876 73.5558 27.3861 75.0838 28.3872C76.0456 29.0462 76.5947 30.1527 76.5338 31.3118C76.6056 32.6901 75.9621 34.0095 74.828 34.8078C73.3483 35.706 71.6253 36.1296 69.8945 36.0189C64.933 36.0189 62.5938 34.3866 60.2047 30.1364L56.7805 34.8078C57.3912 36.056 58.2718 37.1563 59.3591 38.029C61.8029 40.0097 65.2528 41 69.7097 41C73.8897 41 77.1485 40.1243 79.4845 38.372C81.8121 36.6399 83.124 33.8756 82.9891 30.9913C83.1131 28.6381 82.1771 26.3524 80.433 24.7542ZM50.9313 40.2721H49.5008V7.73172H50.9282L50.9313 40.2721ZM8.92081 7.57918C9.39193 7.5575 9.84354 7.76657 10.1298 8.13901C10.7218 9.14097 10.7 10.3876 10.0736 11.3679C9.72732 11.7698 9.21409 11.9897 8.68291 11.9649H8.67511V10.9683H8.68213C8.98867 10.9923 9.28897 10.8685 9.48787 10.6354C9.66882 10.3489 9.75306 10.0128 9.72966 9.67524C9.7476 9.40036 9.67896 9.12626 9.53388 8.89087C9.40441 8.71123 9.19225 8.60979 8.96995 8.62141C8.78431 8.61212 8.60647 8.69884 8.50039 8.84983C8.35297 9.11077 8.25469 9.39572 8.21101 9.69151L8.12132 10.1336C8.05814 10.6021 7.86236 11.0427 7.55738 11.4051C7.28516 11.6877 6.90374 11.8425 6.50985 11.8294C6.08085 11.8425 5.67213 11.6497 5.41318 11.3106C5.1199 10.8901 4.97716 10.3853 5.0068 9.87502C4.9678 9.31287 5.12614 8.75459 5.45452 8.29542C5.76807 7.9315 6.22827 7.72398 6.71109 7.72863H6.71889V8.71045H6.71499C6.46071 8.70813 6.21891 8.81653 6.05043 9.00547C5.88741 9.25944 5.81175 9.5591 5.83671 9.85953C5.82189 10.1034 5.88117 10.3466 6.00675 10.5564C6.11361 10.7128 6.29457 10.8042 6.48489 10.7964C6.67287 10.8057 6.85382 10.7229 6.96848 10.575C7.11824 10.3303 7.21652 10.0585 7.25708 9.77513L7.34678 9.31751C7.41464 8.83279 7.60574 8.37285 7.90292 7.9826C8.165 7.7054 8.53783 7.5575 8.92081 7.57764V7.57918ZM7.89902 36.2953C7.60184 36.6863 7.41074 37.1455 7.34288 37.6302L7.25318 38.0878C7.21262 38.3712 7.11434 38.643 6.96458 38.8877C6.84992 39.0356 6.66897 39.1184 6.48099 39.1091C6.29067 39.1169 6.10971 39.0255 6.00285 38.8691C5.87727 38.6593 5.81799 38.4161 5.83281 38.1722C5.80863 37.8718 5.88351 37.5721 6.04731 37.3181C6.21501 37.1292 6.45759 37.0208 6.71109 37.0224H6.71811V36.0351H6.71031C6.22749 36.0305 5.76807 36.238 5.45374 36.6019C5.12458 37.0611 4.96624 37.6194 5.00602 38.1815C4.97638 38.6918 5.1199 39.1974 5.41318 39.6171C5.67213 39.9562 6.08085 40.1498 6.50985 40.1359C6.90374 40.1483 7.28516 39.9942 7.55738 39.7108C7.86236 39.3484 8.05814 38.9078 8.12132 38.4394L8.21101 37.9972C8.25547 37.7014 8.35297 37.4165 8.50039 37.1555C8.60647 37.0038 8.78431 36.9178 8.96995 36.9271C9.19303 36.9178 9.40519 37.0193 9.53467 37.1981C9.67974 37.4335 9.74838 37.7076 9.73044 37.9825C9.75384 38.3201 9.6696 38.6562 9.48865 38.9427C9.28975 39.1757 8.98945 39.2996 8.68291 39.2756H8.67589V40.2667H8.68369C9.21487 40.2915 9.7281 40.0716 10.0736 39.6697C10.7 38.6887 10.7218 37.4428 10.1298 36.4409C9.84432 36.0684 9.39193 35.8586 8.92081 35.881C8.53549 35.8617 8.1611 36.0127 7.89824 36.293L7.89902 36.2953ZM10.4395 23.4603V24.5041C10.2429 24.604 10.0237 24.6527 9.80298 24.6458L9.22267 24.6682C8.98087 24.6558 8.74297 24.7325 8.55499 24.8835C8.41459 25.0585 8.34751 25.2792 8.36701 25.5022V26.7922H10.4434V27.8034H5.12536V25.4131C5.12536 25.2985 5.13082 25.1847 5.14252 25.0709C5.14252 25.1049 5.14252 25.1413 5.14252 25.1793C5.15344 24.8223 5.25874 24.4747 5.44594 24.1696L5.40226 24.223C5.4397 24.1603 5.48181 24.0999 5.52861 24.0434C5.79771 23.7181 6.20487 23.537 6.62841 23.554C7.20014 23.5153 7.72352 23.8722 7.89356 24.4158C7.95596 24.1913 8.09558 23.9954 8.28745 23.8614C8.51209 23.7336 8.76637 23.6686 9.02455 23.6717L9.81312 23.6276C10.0292 23.6322 10.2413 23.5772 10.427 23.4673L10.4395 23.4603ZM6.74073 24.5962C6.52233 24.5838 6.31017 24.6721 6.16587 24.8363C6.02235 25.0322 5.95137 25.2714 5.96697 25.5138V26.7937H7.55894V25.4689C7.57376 25.2343 7.4981 25.0027 7.34834 24.8208C7.18844 24.6605 6.96614 24.5776 6.73917 24.5939L6.74073 24.5962ZM5.12926 21.3426H10.4473V20.3313H5.12926V21.3426ZM6.04497 13.9944H5.12926V17.8829H10.4473V13.9944H9.53076V16.874H8.17279V14.27H7.29374V16.874H6.04107L6.04497 13.9944ZM6.04497 29.9692H5.12926V33.8578H10.4473V29.9692H9.53076V32.8488H8.17279V30.2448H7.29374V32.8488H6.04107L6.04497 29.9692ZM12.7514 40.2714H19.8048L25.1634 32.9611L21.6363 28.1488L12.7514 40.2714ZM43.6555 7.73327H36.602L32.2177 13.7141L35.7448 18.5256L43.6555 7.73327ZM20.7791 7.73327H13.7248L37.5755 40.2667H44.6289L20.7791 7.73327Z" fill="black"/>
</svg>
