<svg width="48" height="48" viewBox="0 0 48 48" fill="none" xmlns="http://www.w3.org/2000/svg">
<path d="M8.1554 7.0035C8.6547 6.98095 9.13334 7.19836 9.43672 7.58566C10.0642 8.6276 10.041 9.92397 9.3772 10.9434C9.01017 11.3613 8.46622 11.5899 7.90326 11.5642H7.895V10.5279H7.90244C8.22732 10.5528 8.54558 10.424 8.75638 10.1816C8.94817 9.88371 9.03745 9.53425 9.01265 9.18319C9.03166 8.89734 8.95891 8.6123 8.80515 8.36752C8.66793 8.18071 8.44308 8.07523 8.20748 8.0873C8.01073 8.07764 7.82225 8.16782 7.70983 8.32484C7.55359 8.59619 7.44943 8.89251 7.40313 9.2001L7.30807 9.65987C7.24111 10.147 7.03362 10.6052 6.71039 10.982C6.42189 11.2759 6.01765 11.437 5.60018 11.4233C5.14552 11.437 4.71235 11.2365 4.4379 10.8838C4.12707 10.4466 3.97579 9.92156 4.00721 9.39093C3.96587 8.80635 4.13368 8.2258 4.48171 7.74831C4.81403 7.36987 5.30176 7.15407 5.81346 7.1589H5.82173V8.1799H5.8176C5.5481 8.17749 5.29184 8.29022 5.11328 8.48669C4.94051 8.75079 4.86032 9.06241 4.88677 9.37482C4.87107 9.62846 4.93389 9.8813 5.06699 10.0995C5.18024 10.2622 5.37202 10.3572 5.57373 10.3491C5.77296 10.3588 5.96474 10.2726 6.08626 10.1188C6.24498 9.86439 6.34914 9.58176 6.39213 9.28706L6.48719 8.81118C6.55911 8.30712 6.76164 7.82883 7.0766 7.42301C7.35436 7.13475 7.74951 6.98095 8.1554 7.00189V7.0035ZM7.07247 36.8653C6.75751 37.2719 6.55498 37.7494 6.48306 38.2534L6.38799 38.7293C6.34501 39.024 6.24085 39.3067 6.08213 39.5611C5.96061 39.7149 5.76882 39.801 5.5696 39.7914C5.36789 39.7994 5.17611 39.7044 5.06285 39.5418C4.92976 39.3236 4.86693 39.0707 4.88264 38.8171C4.85701 38.5047 4.93637 38.1931 5.10997 37.929C5.28771 37.7325 5.5448 37.6198 5.81346 37.6214H5.8209V36.5947H5.81264C5.30093 36.5899 4.81403 36.8057 4.48088 37.1841C4.13203 37.6616 3.96422 38.2422 4.00638 38.8268C3.97497 39.3574 4.12707 39.8832 4.4379 40.3196C4.71235 40.6723 5.14552 40.8736 5.60018 40.8591C6.01765 40.872 6.42189 40.7117 6.71039 40.417C7.03362 40.0402 7.24111 39.582 7.30807 39.0949L7.40313 38.6351C7.45025 38.3275 7.55359 38.0312 7.70983 37.7599C7.82225 37.602 8.01073 37.5127 8.20748 37.5223C8.4439 37.5127 8.66875 37.6181 8.80598 37.8041C8.95974 38.0489 9.03249 38.334 9.01347 38.6198C9.03827 38.9709 8.94899 39.3203 8.75721 39.6183C8.54641 39.8606 8.22814 39.9895 7.90326 39.9645H7.89582V40.9952H7.90409C8.46705 41.0209 9.01099 40.7923 9.3772 40.3744C10.041 39.3542 10.0642 38.0586 9.43672 37.0167C9.13417 36.6294 8.6547 36.4111 8.1554 36.4345C7.74703 36.4144 7.35023 36.5714 7.07164 36.8629V36.8653H7.07247ZM9.76491 23.5182V24.6036C9.55659 24.7075 9.3243 24.7582 9.09035 24.751L8.47532 24.7743C8.21905 24.7615 7.96692 24.8412 7.76769 24.9982C7.61889 25.1802 7.5478 25.4096 7.56847 25.6415V26.983H9.76904V28.0346H4.13286V25.5489C4.13286 25.4298 4.13864 25.3114 4.15104 25.193C4.15104 25.2285 4.15104 25.2663 4.15104 25.3058C4.16262 24.9346 4.27422 24.573 4.47262 24.2558L4.42632 24.3113C4.466 24.2461 4.51064 24.1833 4.56024 24.1245C4.84544 23.7864 5.27696 23.5979 5.72584 23.6157C6.33178 23.5754 6.88647 23.9466 7.06668 24.5118C7.13282 24.2783 7.28079 24.0746 7.48415 23.9353C7.72223 23.8025 7.99172 23.7348 8.26534 23.738L9.1011 23.6921C9.33008 23.697 9.55494 23.6398 9.75168 23.5255L9.76491 23.5182ZM5.84488 24.6995C5.61341 24.6866 5.38856 24.7784 5.23563 24.9491C5.08352 25.1528 5.00829 25.4016 5.02483 25.6536V26.9846H6.71204V25.6069C6.72775 25.3629 6.64756 25.1222 6.48885 24.933C6.31938 24.7663 6.08378 24.6801 5.84322 24.697L5.84488 24.6995ZM4.13699 21.316H9.77317V20.2644H4.13699V21.316ZM5.10749 13.6746H4.13699V17.7183H9.77317V13.6746H8.80185V16.6692H7.36263V13.9613H6.43098V16.6692H5.10336L5.10749 13.6746ZM5.10749 30.2868H4.13699V34.3305H9.77317V30.2868H8.80185V33.2813H7.36263V30.5734H6.43098V33.2813H5.10336L5.10749 30.2868ZM12.2151 41H19.6906L25.3698 33.3981L21.6316 28.3937L12.2151 41ZM44.9683 7.16374H37.4928L32.8462 13.3831L36.5843 18.3867L44.9683 7.16374ZM20.7231 7.16374H13.2468L38.5245 40.9952H46L20.7231 7.16374Z" fill="black"/>
</svg>
