<svg width="49" height="20" viewBox="0 0 49 20" fill="none" xmlns="http://www.w3.org/2000/svg">
<path d="M25.8967 4.06C24.9074 4.06 23.7874 4.24667 22.5367 4.62V11.34H26.7367C27.4834 11.34 27.8567 10.9667 27.8567 10.22V5.04C27.8567 4.76 27.7634 4.52667 27.5767 4.34C27.3901 4.15333 27.1567 4.06 26.8767 4.06H25.8967ZM22.5367 15.12V19.88H17.6367V0.28H21.9767L22.2567 1.68C23.1341 1.10133 24.0301 0.681333 24.9447 0.42C25.8781 0.14 26.6621 0 27.2967 0H28.5567C29.8261 0 30.8434 0.382667 31.6087 1.148C32.3741 1.91333 32.7567 2.93067 32.7567 4.2V10.64C32.7567 12.04 32.3554 13.1413 31.5527 13.944C30.7687 14.728 29.6767 15.12 28.2767 15.12H22.5367Z" fill="#262626"/>
<path d="M8.26 4.06C7.27067 4.06 6.15067 4.24667 4.9 4.62V11.34H9.1C9.84667 11.34 10.22 10.9667 10.22 10.22V5.04C10.22 4.76 10.1267 4.52667 9.94 4.34C9.75333 4.15333 9.52 4.06 9.24 4.06H8.26ZM4.9 15.12V19.88H0V0.28H4.34L4.62 1.68C5.49733 1.10133 6.39333 0.681333 7.308 0.42C8.24133 0.14 9.02533 0 9.66 0H10.92C12.1893 0 13.2067 0.382667 13.972 1.148C14.7373 1.91333 15.12 2.93067 15.12 4.2V10.64C15.12 12.04 14.7187 13.1413 13.916 13.944C13.132 14.728 12.04 15.12 10.64 15.12H4.9Z" fill="#262626"/>
<path d="M41.37 12.3201C42.126 12.3201 42.7093 12.6001 43.12 13.1601C43.5493 12.8707 44.0113 12.6607 44.506 12.5301C45.01 12.3901 45.458 12.3201 45.85 12.3201H45.99C46.6247 12.3201 47.1333 12.5114 47.516 12.8941C47.8987 13.2767 48.09 13.7854 48.09 14.4201V19.8801H45.64V14.8401C45.64 14.7001 45.5933 14.5834 45.5 14.4901C45.4067 14.3967 45.29 14.3501 45.15 14.3501H45.08C44.66 14.3501 44.1233 14.4434 43.47 14.6301V19.8801H41.02V14.8401C41.02 14.7001 40.9733 14.5834 40.88 14.4901C40.7867 14.3967 40.67 14.3501 40.53 14.3501H40.46C40.04 14.3501 39.5033 14.4434 38.85 14.6301V19.8801H36.4V12.4601H38.57L38.71 13.1601C39.1487 12.8707 39.5967 12.6607 40.054 12.5301C40.5207 12.3901 40.9127 12.3201 41.23 12.3201H41.37Z" fill="#262626"/>
<path d="M32.7567 17.78H35.2767V19.88H32.7567V17.78Z" fill="#262626"/>
</svg>
