<svg width="194" height="25" viewBox="0 0 194 25" fill="none" xmlns="http://www.w3.org/2000/svg">
<path d="M150.87 8.37988C150.124 8.37988 149.75 8.75322 149.75 9.49988V11.0399H154.51V9.49988C154.51 8.75322 154.137 8.37988 153.39 8.37988H150.87ZM158.85 19.7199C155.248 20.0932 151.981 20.2799 149.05 20.2799C147.781 20.2799 146.764 19.8972 145.998 19.1319C145.233 18.3666 144.85 17.3492 144.85 16.0799V9.35988C144.85 7.95988 145.242 6.86788 146.026 6.08388C146.829 5.28122 147.93 4.87988 149.33 4.87988H154.93C156.33 4.87988 157.422 5.28122 158.206 6.08388C159.009 6.86788 159.41 7.95988 159.41 9.35988V14.5399H149.75V15.6599C149.75 15.9399 149.844 16.1732 150.03 16.3599C150.217 16.5466 150.45 16.6399 150.73 16.6399C152.578 16.6399 155.285 16.4999 158.85 16.2199V19.7199Z" fill="#E2FFDD"/>
<path d="M143.175 19.9999C141.924 20.1866 140.73 20.2799 139.591 20.2799C138.471 20.2799 137.528 19.8972 136.763 19.1319C135.998 18.3666 135.615 17.3492 135.615 16.0799V0.399902H140.515V15.3799C140.515 15.6599 140.608 15.8932 140.795 16.0799C140.982 16.2666 141.215 16.3599 141.495 16.3599H143.175V19.9999Z" fill="#E2FFDD"/>
<path d="M123.726 14.1199V19.9999H118.826V0.399902H123.726V10.3399H125.966L129.046 5.1599H134.226L130.026 12.2999L134.226 19.9999H129.046L125.826 14.1199H123.726Z" fill="#E2FFDD"/>
<path d="M116.591 19.7199C113.101 20.0932 110.021 20.2799 107.351 20.2799C106.082 20.2799 105.065 19.8972 104.299 19.1319C103.534 18.3666 103.151 17.3492 103.151 16.0799V9.63991C103.151 8.23991 103.543 7.14791 104.327 6.36391C105.13 5.56125 106.231 5.15991 107.631 5.15991H116.591V8.93991H109.171C108.425 8.93991 108.051 9.31325 108.051 10.0599V15.5199C108.051 15.7999 108.145 16.0332 108.331 16.2199C108.518 16.4066 108.751 16.4999 109.031 16.4999C110.711 16.4999 113.231 16.3599 116.591 16.0799V19.7199Z" fill="#E2FFDD"/>
<path d="M100.622 5.72012V20.0001H95.7225V9.50012H93.6225V5.72012H100.622ZM95.7225 0.120117H100.622V4.04012H95.7225V0.120117Z" fill="#E2FFDD"/>
<path d="M85.0858 8.93988C84.0965 8.93988 82.9765 9.12655 81.7258 9.49988V16.2199H85.9258C86.6724 16.2199 87.0458 15.8466 87.0458 15.0999V9.91988C87.0458 9.63988 86.9525 9.40655 86.7658 9.21988C86.5791 9.03322 86.3458 8.93988 86.0658 8.93988H85.0858ZM81.7258 19.9999V24.7599H76.8258V5.15988H81.1658L81.4458 6.55988C82.3231 5.98122 83.2191 5.56122 84.1338 5.29988C85.0671 5.01988 85.8511 4.87988 86.4858 4.87988H87.7458C89.0151 4.87988 90.0324 5.26255 90.7978 6.02788C91.5631 6.79322 91.9458 7.81055 91.9458 9.07988V15.5199C91.9458 16.9199 91.5444 18.0212 90.7418 18.8239C89.9578 19.6079 88.8658 19.9999 87.4658 19.9999H81.7258Z" fill="#E2FFDD"/>
<path d="M66.4756 19.9999C65.225 20.1866 64.0303 20.2799 62.8916 20.2799C61.7716 20.2799 60.829 19.8972 60.0636 19.1319C59.2983 18.3666 58.9156 17.3492 58.9156 16.0799V0.399902H63.8156V15.3799C63.8156 15.6599 63.909 15.8932 64.0956 16.0799C64.2823 16.2666 64.5156 16.3599 64.7956 16.3599H66.4756V19.9999Z" fill="#E2FFDD"/>
<path d="M47.8666 8.37988C47.1199 8.37988 46.7466 8.75322 46.7466 9.49988V11.0399H51.5066V9.49988C51.5066 8.75322 51.1332 8.37988 50.3866 8.37988H47.8666ZM55.8466 19.7199C52.2439 20.0932 48.9772 20.2799 46.0466 20.2799C44.7772 20.2799 43.7599 19.8972 42.9946 19.1319C42.2292 18.3666 41.8466 17.3492 41.8466 16.0799V9.35988C41.8466 7.95988 42.2386 6.86788 43.0226 6.08388C43.8252 5.28122 44.9266 4.87988 46.3266 4.87988H51.9266C53.3266 4.87988 54.4186 5.28122 55.2026 6.08388C56.0052 6.86788 56.4066 7.95988 56.4066 9.35988V14.5399H46.7466V15.6599C46.7466 15.9399 46.8399 16.1732 47.0266 16.3599C47.2132 16.5466 47.4466 16.6399 47.7266 16.6399C49.5746 16.6399 52.2812 16.4999 55.8466 16.2199V19.7199Z" fill="#E2FFDD"/>
<path d="M35.6855 5.15991H41.1455L36.6655 12.5799L41.2855 19.9999H35.8255L33.3055 15.5199L30.7855 19.9999H25.3255L29.9455 12.5799L25.4655 5.15991H30.9255L33.3055 9.63991L35.6855 5.15991Z" fill="#E2FFDD"/>
<path d="M24.1967 5.72012V20.0001H19.2967V9.50012H17.1967V5.72012H24.1967ZM19.2967 0.120117H24.1967V4.04012H19.2967V0.120117Z" fill="#E2FFDD"/>
<path d="M8.66 8.93988C7.67066 8.93988 6.55066 9.12655 5.29999 9.49988V16.2199H9.5C10.2467 16.2199 10.62 15.8466 10.62 15.0999V9.91988C10.62 9.63988 10.5267 9.40655 10.34 9.21988C10.1533 9.03322 9.91999 8.93988 9.63999 8.93988H8.66ZM5.29999 19.9999V24.7599H0.399994V5.15988H4.73999L5.01999 6.55988C5.89733 5.98122 6.79333 5.56122 7.70799 5.29988C8.64133 5.01988 9.42533 4.87988 10.06 4.87988H11.32C12.5893 4.87988 13.6067 5.26255 14.372 6.02788C15.1373 6.79322 15.52 7.81055 15.52 9.07988V15.5199C15.52 16.9199 15.1187 18.0212 14.316 18.8239C13.532 19.6079 12.44 19.9999 11.04 19.9999H5.29999Z" fill="#E2FFDD"/>
<path d="M188.881 14.1899C188.507 14.1899 188.321 14.3766 188.321 14.7499V15.5199H190.701V14.7499C190.701 14.3766 190.514 14.1899 190.141 14.1899H188.881ZM192.871 19.8599C191.069 20.0466 189.436 20.1399 187.971 20.1399C187.336 20.1399 186.827 19.9486 186.445 19.5659C186.062 19.1833 185.871 18.6746 185.871 18.0399V14.6799C185.871 13.9799 186.067 13.4339 186.459 13.0419C186.86 12.6406 187.411 12.4399 188.111 12.4399H190.911C191.611 12.4399 192.157 12.6406 192.549 13.0419C192.95 13.4339 193.151 13.9799 193.151 14.6799V17.2699H188.321V17.8299C188.321 17.9699 188.367 18.0866 188.461 18.1799C188.554 18.2733 188.671 18.3199 188.811 18.3199C189.735 18.3199 191.088 18.2499 192.871 18.1099V19.8599Z" fill="#E2FFDD"/>
<path d="M178.033 12.4399C178.789 12.4399 179.373 12.7199 179.783 13.2799C180.213 12.9906 180.675 12.7806 181.169 12.6499C181.673 12.5099 182.121 12.4399 182.513 12.4399H182.653C183.288 12.4399 183.797 12.6313 184.179 13.0139C184.562 13.3966 184.753 13.9053 184.753 14.5399V19.9999H182.303V14.9599C182.303 14.8199 182.257 14.7033 182.163 14.6099C182.07 14.5166 181.953 14.4699 181.813 14.4699H181.743C181.323 14.4699 180.787 14.5633 180.133 14.7499V19.9999H177.683V14.9599C177.683 14.8199 177.637 14.7033 177.543 14.6099C177.45 14.5166 177.333 14.4699 177.193 14.4699H177.123C176.703 14.4699 176.167 14.5633 175.513 14.7499V19.9999H173.063V12.5799H175.233L175.373 13.2799C175.812 12.9906 176.26 12.7806 176.717 12.6499C177.184 12.5099 177.576 12.4399 177.893 12.4399H178.033Z" fill="#E2FFDD"/>
<path d="M169.42 17.8999H171.94V19.9999H169.42V17.8999Z" fill="#E2FFDD"/>
</svg>
