<?xml version="1.0" encoding="UTF-8" standalone="no"?><!DOCTYPE svg PUBLIC "-//W3C//DTD SVG 1.1//EN" "http://www.w3.org/Graphics/SVG/1.1/DTD/svg11.dtd"><svg width="100%" height="100%" viewBox="0 0 256 256" version="1.1" xmlns="http://www.w3.org/2000/svg" xmlns:xlink="http://www.w3.org/1999/xlink" xml:space="preserve" xmlns:serif="http://www.serif.com/" style="fill-rule:evenodd;clip-rule:evenodd;stroke-linejoin:round;stroke-miterlimit:2;"><g id="Button"><path d="M20,140l72,0l0,24c0,19.869 -16.131,36 -36,36c-19.869,0 -36,-16.131 -36,-36l0,-24Z" style="fill-opacity:0.15;"/><path d="M20,116l72,-0l-0,24c-0,19.869 -16.131,36 -36,36c-19.869,0 -36,-16.131 -36,-36l-0,-24Z" style="fill:#50994d;"/><circle cx="56" cy="116" r="36" style="fill:#76e070;"/></g><g id="Button1" serif:id="Button"><path d="M164,140l72,0l0,24c0,19.869 -16.131,36 -36,36c-19.869,0 -36,-16.131 -36,-36l0,-24Z" style="fill-opacity:0.15;"/><path d="M164,116l72,-0l-0,24c-0,19.869 -16.131,36 -36,36c-19.869,0 -36,-16.131 -36,-36l-0,-24Z" style="fill:#3c8399;"/><circle cx="200" cy="116" r="36" style="fill:#58c0df;"/></g><g id="Button2" serif:id="Button"><path d="M92,68l72,0l0,24c0,19.869 -16.131,36 -36,36c-19.869,0 -36,-16.131 -36,-36l0,-24Z" style="fill-opacity:0.15;"/><path d="M92,44l72,0l-0,24c-0,19.869 -16.131,36 -36,36c-19.869,0 -36,-16.131 -36,-36l-0,-24Z" style="fill:#9059b3;"/><circle cx="128" cy="44" r="36" style="fill:#b470df;"/></g><g id="Button3" serif:id="Button"><path d="M92,212l72,0l0,24c0,19.869 -16.131,36 -36,36c-19.869,0 -36,-16.131 -36,-36l0,-24Z" style="fill-opacity:0.15;"/><path d="M92,188l72,0l-0,24c-0,19.869 -16.131,36 -36,36c-19.869,0 -36,-16.131 -36,-36l-0,-24Z" style="fill:#993936;"/><circle cx="128" cy="188" r="36" style="fill:#df524d;"/></g></svg>