<svg width="48" height="48" viewBox="0 0 48 48" fill="none" xmlns="http://www.w3.org/2000/svg">
<path d="M23.8499 24.9888L27.2679 20.3576C26.1464 20.099 25.0806 19.646 24.1201 19.0196C23.1705 18.308 22.6396 17.1775 22.704 16.0029C22.6553 14.8174 23.2357 13.6916 24.2355 13.0319C25.5644 12.2514 27.1022 11.8851 28.6462 11.9811C34.6545 11.9811 36.2189 15.0954 37.2816 16.4133L40.504 12.047C39.959 11.172 39.2702 10.393 38.4652 9.74261C36.2213 7.91369 32.9172 7 28.5528 7C24.7122 7 21.7105 7.83006 19.5467 9.49096C17.4215 11.0667 16.2088 13.5654 16.2976 16.1864C16.2976 20.6286 18.8148 23.4332 23.8499 24.9888ZM40.4153 24.7542C38.9097 23.4324 36.5771 22.3972 33.4175 21.6484L29.961 26.3307C31.7689 26.6876 33.4905 27.3861 35.0291 28.3872C35.9975 29.0462 36.5504 30.1527 36.4891 31.3118C36.5614 32.6901 35.9134 34.0095 34.7715 34.8078C33.2816 35.706 31.5467 36.1296 29.8039 36.0189C24.8081 36.0189 22.4527 34.3866 20.047 30.1364L16.5992 34.8078C17.2141 36.056 18.1008 37.1563 19.1957 38.029C21.6563 40.0097 25.1301 41 29.6178 41C33.8267 41 37.108 40.1243 39.4602 38.372C41.8038 36.6399 43.1249 33.8756 42.989 30.9913C43.1139 28.6381 42.1714 26.3524 40.4153 24.7542ZM8.94792 7.579C9.42229 7.55731 9.87703 7.76638 10.1653 8.13882C10.7614 9.14078 10.7394 10.3874 10.1087 11.3677C9.76001 11.7696 9.24323 11.9895 8.70838 11.9647H8.70052V10.9682H8.70759C9.01625 10.9922 9.31862 10.8683 9.5189 10.6352C9.70111 10.3487 9.78593 10.0127 9.76237 9.67506C9.78043 9.40017 9.71132 9.12607 9.56523 8.89068C9.43486 8.71104 9.22124 8.6096 8.9974 8.62122C8.81048 8.61193 8.63141 8.69865 8.5246 8.84964C8.37616 9.11058 8.2772 9.39553 8.23322 9.69132L8.1429 10.1334C8.07928 10.6019 7.88215 11.0425 7.57506 11.4049C7.30096 11.6875 6.91691 11.8424 6.52029 11.8292C6.08832 11.8424 5.67678 11.6495 5.41603 11.3104C5.12073 10.8899 4.977 10.3851 5.00685 9.87483C4.96758 9.31268 5.12701 8.7544 5.45766 8.29523C5.77338 7.93131 6.23676 7.72379 6.72292 7.72844H6.73077V8.71026H6.72684C6.47081 8.70794 6.22734 8.81634 6.05769 9.00528C5.89355 9.25925 5.81737 9.55891 5.8425 9.85934C5.82758 10.1032 5.88726 10.3464 6.01371 10.5562C6.12131 10.7126 6.30352 10.804 6.49515 10.7963C6.68443 10.8055 6.86664 10.7227 6.9821 10.5748C7.13289 10.3301 7.23185 10.0583 7.27269 9.77494L7.36301 9.31732C7.43134 8.8326 7.62376 8.37266 7.92299 7.98241C8.18688 7.70521 8.56229 7.55731 8.94792 7.57745V7.579ZM7.91906 36.2951C7.61983 36.6861 7.42741 37.1453 7.35908 37.63L7.26876 38.0876C7.22792 38.371 7.12896 38.6428 6.97817 38.8875C6.86272 39.0354 6.68051 39.1182 6.49123 39.1089C6.29959 39.1167 6.11738 39.0253 6.00979 38.8689C5.88334 38.6591 5.82365 38.4159 5.83857 38.172C5.81422 37.8716 5.88962 37.5719 6.05455 37.318C6.22341 37.129 6.46767 37.0206 6.72292 37.0222H6.72999V36.0349H6.72213C6.23598 36.0303 5.77338 36.2378 5.45687 36.6017C5.12544 37.0609 4.96601 37.6192 5.00606 38.1813C4.97622 38.6916 5.12073 39.1972 5.41603 39.6169C5.67678 39.956 6.08832 40.1496 6.52029 40.1357C6.91691 40.1481 7.30096 39.994 7.57506 39.7106C7.88215 39.3482 8.07928 38.9076 8.1429 38.4392L8.23322 37.997C8.27798 37.7012 8.37616 37.4163 8.5246 37.1554C8.63141 37.0036 8.81048 36.9176 8.9974 36.9269C9.22202 36.9176 9.43565 37.0191 9.56602 37.1979C9.7121 37.4333 9.78122 37.7074 9.76315 37.9823C9.78671 38.3199 9.70189 38.656 9.51968 38.9425C9.31941 39.1755 9.01703 39.2994 8.70838 39.2754H8.70131V40.2665H8.70916C9.24401 40.2913 9.7608 40.0714 10.1087 39.6695C10.7394 38.6885 10.7614 37.4426 10.1653 36.4407C9.87782 36.0682 9.42229 35.8584 8.94792 35.8808C8.55994 35.8615 8.18295 36.0125 7.91828 36.2928V36.2951H7.91906ZM10.4771 23.4601V24.5039C10.2792 24.6038 10.0585 24.6526 9.83619 24.6456L9.25187 24.668C9.0084 24.6557 8.76885 24.7323 8.57957 24.8833C8.4382 25.0583 8.37066 25.279 8.39029 25.502V26.792H10.481V27.8032H5.12622V25.4129C5.12622 25.2983 5.13172 25.1845 5.1435 25.0707C5.1435 25.1048 5.1435 25.1411 5.1435 25.1791C5.1545 24.8221 5.26053 24.4745 5.44902 24.1694L5.40504 24.2228C5.44274 24.1601 5.48515 24.0997 5.53227 24.0432C5.80323 23.718 6.2132 23.5368 6.63967 23.5538C7.21536 23.5151 7.74235 23.872 7.91356 24.4156C7.9764 24.1911 8.11698 23.9952 8.31019 23.8612C8.53638 23.7334 8.79241 23.6684 9.05238 23.6715L9.8464 23.6274C10.064 23.632 10.2776 23.577 10.4645 23.4671L10.4771 23.4601ZM6.75276 24.596C6.53285 24.5836 6.31923 24.6719 6.17393 24.8361C6.02942 25.032 5.95795 25.2712 5.97366 25.5136V26.7935H7.57663V25.4687C7.59156 25.2341 7.51537 25.0025 7.36458 24.8206C7.20357 24.6603 6.97974 24.5774 6.75119 24.5937L6.75276 24.596ZM5.13015 21.3424H10.4849V20.3311H5.13015V21.3424ZM6.0522 13.9942H5.13015V17.8828H10.4849V13.9942H9.56209V16.8738H8.19473V14.2698H7.3096V16.8738H6.04827L6.0522 13.9942ZM6.0522 29.969H5.13015V33.8576H10.4849V29.969H9.56209V32.8486H8.19473V30.2446H7.3096V32.8486H6.04827L6.0522 29.969Z" fill="black"/>
</svg>
