<svg width="48" height="48" viewBox="0 0 48 48" fill="none" xmlns="http://www.w3.org/2000/svg">
<path d="M19.5901 5.19773V18.742C19.5901 28.4472 19.6373 32.1051 19.7631 32.204C19.8574 32.2534 20.2349 32.4017 20.5967 32.517C20.9427 32.6324 21.4932 32.8136 21.792 32.929C22.0908 33.0443 22.7671 33.275 23.2862 33.4233C23.8052 33.5881 24.3871 33.7858 24.5916 33.8517C24.7961 33.9341 25.0163 34 25.0949 34C25.1893 34 25.2522 29.683 25.2522 22.4989C25.2522 11.8875 25.2679 10.9648 25.5353 10.4375C25.7712 9.9267 25.8656 9.8608 26.3846 9.87727C26.7935 9.89375 27.0609 10.0091 27.2811 10.2892C27.5799 10.6682 27.5957 10.9483 27.6114 15.908V21.1312L28.3349 21.4773C29.4516 21.9881 31.1817 21.9386 32.1096 21.3784C33.5094 20.5216 34.2172 18.742 34.2172 16.0562C34.2172 13.3045 33.6195 11.4426 32.2512 10.0091C31.4962 9.2017 29.6875 7.96591 29.2786 7.96591C29.1685 7.96591 28.9483 7.85057 28.7753 7.71875C28.618 7.58693 28.3506 7.47159 28.2091 7.47159C28.0518 7.47159 27.7058 7.37273 27.4227 7.24091C26.6205 6.89489 25.8656 6.63125 25.2522 6.48295C24.9533 6.41705 24.4972 6.26875 24.2299 6.18636C23.0817 5.77443 20.2035 5 19.8574 5C19.7159 5 19.5901 5.09886 19.5901 5.19773ZM17.4668 21.675C17.2151 21.7739 16.7905 21.9386 16.5231 22.054C16.2714 22.1693 15.9097 22.3011 15.7367 22.3506C15.5637 22.4 15.0289 22.5977 14.5571 22.7955C14.0852 22.9932 13.4876 23.2074 13.2202 23.2898C12.9685 23.3722 12.3551 23.5864 11.8833 23.7841C11.4115 23.9653 10.5936 24.2784 10.0746 24.4597C7.10197 25.5307 5.67071 26.7335 6.06392 27.821C6.34702 28.6284 7.35362 29.3534 8.65905 29.7159C8.92643 29.7983 9.35109 29.9301 9.60273 30.029C11.0812 30.5562 12.6383 30.7375 15.2334 30.6716C18.4105 30.6057 18.3318 30.6551 18.3318 28.6943C18.3318 27.1619 18.3475 27.1619 16.9163 27.7386C14.9031 28.546 14.0381 28.7602 13.0472 28.6943C11.899 28.6119 11.3171 28.233 11.5687 27.7222C11.6631 27.5574 11.9619 27.3597 12.2451 27.2608C12.5124 27.1784 13.1416 26.9477 13.6134 26.75C14.0852 26.5523 14.6515 26.3545 14.8716 26.3051C15.0918 26.2557 15.3435 26.1403 15.4536 26.058C15.5637 25.9591 15.8782 25.8273 16.1613 25.7614C17.0736 25.5142 18.0959 25.0858 18.206 24.8881C18.3475 24.6574 18.379 22.1034 18.2375 21.7409C18.1274 21.4443 18.1274 21.4443 17.4668 21.675Z" fill="black"/>
<path d="M30.2852 23.158C29.0584 23.3392 27.5328 23.7347 26.9823 24.0148C26.6048 24.196 26.5891 24.2619 26.5891 25.9261C26.5891 27.9199 26.5576 27.8869 28.0832 27.2443C28.5551 27.0466 29.1685 26.8324 29.4201 26.75C29.6875 26.6676 30.2852 26.4534 30.757 26.2557C31.2289 26.058 31.8422 25.8438 32.0939 25.7779C32.3613 25.7119 32.723 25.5636 32.9118 25.4648C33.1005 25.3494 33.9341 25.2671 34.8306 25.2671C36.2776 25.2671 36.4191 25.3 36.5921 25.6131C36.718 25.8932 36.718 26.0085 36.5449 26.1898C36.309 26.4369 34.8935 27.0466 34.2172 27.1949C33.997 27.2443 33.7611 27.3432 33.6667 27.4091C33.5881 27.475 33.2578 27.6233 32.9589 27.7057C32.6601 27.8046 32.0153 28.0352 31.5434 28.233C31.0716 28.4307 30.4739 28.6449 30.2065 28.7273C29.9549 28.8097 29.3415 29.0239 28.8696 29.2216C28.3978 29.4193 27.7687 29.6335 27.4856 29.7159C26.5733 29.9466 26.5104 30.0949 26.5104 31.8744C26.5104 33.4892 26.5104 33.5057 26.8879 33.5057C27.1081 33.5057 27.3126 33.4398 27.3597 33.3574C27.4069 33.275 27.6429 33.1761 27.8788 33.1267C28.1304 33.0773 28.6023 32.929 28.9483 32.7807C29.2943 32.6489 29.9706 32.3688 30.4424 32.1875C30.9143 31.9898 31.5277 31.7756 31.7793 31.6932C32.0467 31.6108 32.6444 31.3966 33.1162 31.1989C34.7834 30.5233 35.2395 30.3585 35.7114 30.2102C35.9787 30.1443 36.5764 29.9136 37.0482 29.7159C37.5201 29.5182 38.0863 29.304 38.3065 29.2216C41.4364 28.0847 42.5688 26.8983 41.7352 25.5966C41.1061 24.608 38.5739 23.5534 35.8215 23.1415C34.5003 22.9273 31.7479 22.9438 30.2852 23.158Z" fill="black"/>
<path d="M7.07956 37.0792C6.97693 37.1783 6.97009 37.5415 7.07956 37.6472C7.14113 37.7066 8.12637 37.7264 11.0889 37.7264C13.8804 37.7264 15.1051 37.7462 15.3035 37.8057C16.1656 38.0368 16.4598 39.1132 15.8098 39.6811C15.3993 40.0443 15.4814 40.0377 11.8894 40.0377H8.56425L8.20163 40.1962C7.97585 40.2953 7.7227 40.4868 7.53112 40.6915C7.0864 41.1868 6.98377 41.6292 7.01114 42.9434L7.03166 43.967H8.6053L8.63951 42.7123C8.67372 41.3321 8.69425 41.2792 9.13213 40.9557L9.35791 40.7972L12.8131 40.7575C14.7151 40.7377 16.3435 40.6981 16.4393 40.6651C16.9045 40.5132 17.2877 40.1632 17.5682 39.6415C17.7598 39.2849 17.7392 38.4462 17.534 38.0632C17.3356 37.7 17.0003 37.3764 16.624 37.1849L16.3367 37.033L11.7526 37.0132C8.17426 37 7.14798 37.0132 7.07956 37.0792ZM23.6917 37.0594C23.3359 37.1321 23.0212 37.3104 22.7065 37.6208C22.2138 38.1094 22.1865 38.2811 22.1865 40.4868V42.4151L22.0223 42.6726C21.9265 42.8113 21.7486 42.9962 21.6254 43.0821C21.3997 43.2406 21.3791 43.2406 19.4155 43.2604C18.3276 43.267 17.3903 43.2736 17.3493 43.2736C17.2877 43.2736 17.2603 43.3925 17.2603 43.6368V44H19.7508C22.4123 44 22.4054 44 22.9459 43.65C23.1649 43.5113 23.5412 43.0094 23.6438 42.7255C23.6849 42.6 23.7327 41.6755 23.7533 40.4538L23.7943 38.3934L24.0612 38.1292C24.2048 37.9906 24.4033 37.8519 24.5059 37.8189C24.6017 37.7925 25.5937 37.7528 26.7021 37.733L28.7205 37.6934V37.033L26.3258 37.0264C25.0122 37.0198 23.8217 37.033 23.6917 37.0594ZM30.3968 37.0991C30.342 37.1651 30.3215 37.5745 30.342 38.6311C30.3626 40.2292 30.3694 40.2425 30.8689 40.5726L31.1015 40.7311L34.8372 40.7642C38.4292 40.7972 38.5797 40.8038 38.7781 40.9292C39.257 41.2396 39.4281 41.5368 39.4281 42.0519C39.4281 42.5208 39.2433 42.8245 38.7713 43.1217C38.5934 43.234 38.3128 43.2406 34.5361 43.2604C32.3193 43.267 30.4583 43.2868 30.4104 43.3066C30.3489 43.3264 30.3283 43.4387 30.342 43.65L30.3626 43.967L34.8782 43.9868C39.907 44.0066 39.6128 44.0264 40.2354 43.5509C41.2549 42.7651 41.2549 41.266 40.2354 40.4868C39.6196 40.0179 39.8181 40.0377 35.8498 40.0377C33.1472 40.0311 32.2509 40.0113 32.1757 39.9519C31.8746 39.7274 31.8336 39.5755 31.8336 38.717C31.8336 38.1557 31.8609 37.8585 31.9157 37.8057C31.9772 37.7462 33.0514 37.7264 36.3218 37.7264C40.2012 37.7264 40.6459 37.7132 40.687 37.6208C40.7554 37.4491 40.7349 37.1651 40.6459 37.0792C40.5844 37.0198 39.3528 37 35.5214 37C31.1973 37 30.472 37.0132 30.3968 37.0991Z" fill="black"/>
</svg>
