<?xml version="1.0" encoding="UTF-8" standalone="no"?><!DOCTYPE svg PUBLIC "-//W3C//DTD SVG 1.1//EN" "http://www.w3.org/Graphics/SVG/1.1/DTD/svg11.dtd"><svg width="100%" height="100%" viewBox="0 0 64 64" version="1.1" xmlns="http://www.w3.org/2000/svg" xmlns:xlink="http://www.w3.org/1999/xlink" xml:space="preserve" xmlns:serif="http://www.serif.com/" style="fill-rule:evenodd;clip-rule:evenodd;stroke-linejoin:round;stroke-miterlimit:2;"><rect id="icon-feature-xbox-autohdr" x="0" y="0" width="64" height="64" style="fill:none;"/><g><path d="M21.36,25.417l-0,27.253l-7.087,-0l0,-11.447l-2.121,0l0,11.447l-7.086,-0l-0,-27.253l7.086,0l0,9.747l2.121,-0l0,-9.747l7.087,0Z" style="fill-rule:nonzero;"/><path d="M24.205,25.417l5.302,0c3.423,0 5.737,0.157 6.943,0.472c1.207,0.314 2.124,0.83 2.753,1.548c0.628,0.718 1.021,1.518 1.178,2.399c0.157,0.881 0.235,2.612 0.235,5.193l0,9.544c0,2.446 -0.115,4.082 -0.345,4.907c-0.23,0.825 -0.631,1.47 -1.203,1.936c-0.572,0.465 -1.279,0.791 -2.121,0.976c-0.842,0.185 -2.11,0.278 -3.804,0.278l-8.938,-0l-0,-27.253Zm7.086,4.663l0,17.927c1.021,-0 1.65,-0.205 1.885,-0.614c0.236,-0.41 0.354,-1.524 0.354,-3.342l-0,-10.588c-0,-1.234 -0.039,-2.025 -0.118,-2.373c-0.078,-0.348 -0.258,-0.603 -0.539,-0.766c-0.28,-0.163 -0.808,-0.244 -1.582,-0.244Z" style="fill-rule:nonzero;"/><path d="M43.259,25.417l5.016,0c3.345,0 5.609,0.129 6.792,0.388c1.184,0.258 2.149,0.917 2.896,1.977c0.746,1.061 1.119,2.753 1.119,5.075c0,2.121 -0.264,3.547 -0.791,4.276c-0.528,0.729 -1.566,1.167 -3.114,1.313c1.403,0.348 2.345,0.814 2.828,1.397c0.482,0.584 0.782,1.119 0.9,1.608c0.118,0.488 0.177,1.832 0.177,4.031l0,7.188l-6.582,-0l0,-9.056c0,-1.459 -0.115,-2.363 -0.345,-2.71c-0.23,-0.348 -0.833,-0.522 -1.809,-0.522l-0,12.288l-7.087,-0l0,-27.253Zm7.087,4.663l-0,6.06c0.797,-0 1.355,-0.11 1.675,-0.328c0.32,-0.219 0.479,-0.929 0.479,-2.13l0,-1.498c0,-0.864 -0.154,-1.431 -0.462,-1.7c-0.309,-0.269 -0.873,-0.404 -1.692,-0.404Z" style="fill-rule:nonzero;"/></g><g><path d="M13.996,22.128l-4.461,0l-0.614,2.093l-4.003,-0l4.764,-12.674l4.27,-0l4.764,12.674l-4.098,-0l-0.622,-2.093Zm-0.822,-2.74l-1.4,-4.556l-1.392,4.556l2.792,-0Z" style="fill-rule:nonzero;"/><path d="M27.612,11.547l3.908,-0l-0,7.556c-0,0.749 -0.117,1.456 -0.35,2.122c-0.234,0.666 -0.6,1.248 -1.098,1.746c-0.499,0.499 -1.022,0.849 -1.569,1.051c-0.761,0.282 -1.675,0.423 -2.741,0.423c-0.617,0 -1.29,-0.043 -2.019,-0.129c-0.729,-0.087 -1.338,-0.258 -1.828,-0.515c-0.49,-0.256 -0.938,-0.621 -1.345,-1.093c-0.406,-0.473 -0.684,-0.96 -0.834,-1.461c-0.242,-0.807 -0.363,-1.522 -0.363,-2.144l0,-7.556l3.908,-0l-0,7.737c-0,0.692 0.191,1.232 0.575,1.621c0.383,0.389 0.915,0.584 1.595,0.584c0.674,-0 1.203,-0.192 1.586,-0.575c0.383,-0.383 0.575,-0.927 0.575,-1.63l0,-7.737Z" style="fill-rule:nonzero;"/><path d="M33.223,11.547l11.905,-0l-0,3.129l-3.995,0l0,9.545l-3.916,-0l0,-9.545l-3.994,0l-0,-3.129Z" style="fill-rule:nonzero;"/><path d="M45.802,17.892c-0,-2.069 0.576,-3.68 1.729,-4.833c1.153,-1.152 2.758,-1.729 4.816,-1.729c2.109,0 3.734,0.567 4.876,1.699c1.141,1.133 1.711,2.719 1.711,4.759c0,1.482 -0.249,2.696 -0.747,3.645c-0.499,0.948 -1.219,1.685 -2.162,2.213c-0.942,0.527 -2.117,0.791 -3.523,0.791c-1.429,-0 -2.612,-0.228 -3.549,-0.683c-0.936,-0.456 -1.696,-1.176 -2.278,-2.162c-0.582,-0.985 -0.873,-2.219 -0.873,-3.7Zm3.916,0.018c0,1.279 0.238,2.198 0.714,2.757c0.475,0.559 1.122,0.839 1.94,0.839c0.842,-0 1.493,-0.274 1.954,-0.821c0.461,-0.548 0.692,-1.531 0.692,-2.948c-0,-1.193 -0.241,-2.065 -0.722,-2.616c-0.481,-0.55 -1.134,-0.825 -1.958,-0.825c-0.79,-0 -1.424,0.279 -1.902,0.838c-0.478,0.559 -0.718,1.484 -0.718,2.776Z" style="fill-rule:nonzero;"/></g></svg>