<?xml version="1.0" encoding="UTF-8" standalone="no"?><!DOCTYPE svg PUBLIC "-//W3C//DTD SVG 1.1//EN" "http://www.w3.org/Graphics/SVG/1.1/DTD/svg11.dtd"><svg width="100%" height="100%" viewBox="0 0 64 64" version="1.1" xmlns="http://www.w3.org/2000/svg" xmlns:xlink="http://www.w3.org/1999/xlink" xml:space="preserve" xmlns:serif="http://www.serif.com/" style="fill-rule:evenodd;clip-rule:evenodd;stroke-linejoin:round;stroke-miterlimit:2;"><rect id="icon-feature-ps5-triggers" x="0" y="0" width="64" height="64" style="fill:none;"/><clipPath id="_clip1"><rect x="0" y="0" width="64" height="64"/></clipPath><g clip-path="url(#_clip1)"><path d="M48.99,25.329c-0.06,1.099 -1.092,1.963 -2.344,1.963l-1.397,-0c-1.253,-0 -2.285,-0.864 -2.344,-1.963l-0.16,-2.951c-0.063,-1.175 1.004,-2.157 2.344,-2.157l1.716,-0c1.34,-0 2.407,0.982 2.345,2.157l-0.16,2.951Zm-28.557,-0c-0.059,1.099 -1.09,1.963 -2.344,1.963l-1.397,-0c-1.252,-0 -2.285,-0.864 -2.344,-1.963l-0.16,-2.951c-0.062,-1.175 1.005,-2.157 2.345,-2.157l1.717,-0c1.339,-0 2.407,0.982 2.343,2.157l-0.16,2.951Zm33.163,-1.753c-0.441,-0.954 -1.002,-1.848 -1.671,-2.66c-0.96,-1.153 -2.332,-2.323 -4.234,-2.941c-0.936,-0.299 -1.913,-0.449 -2.896,-0.443c-2.261,-0 -4.266,1.248 -6.269,2.542c-0,0 -3.358,-0.233 -6.514,-0.233c-3.148,-0 -6.538,0.233 -6.538,0.233c-2.003,-1.294 -4.008,-2.542 -6.269,-2.542c-1.078,-0 -2.039,0.167 -2.895,0.443c-1.903,0.618 -3.276,1.788 -4.235,2.941c-0.669,0.811 -1.231,1.704 -1.671,2.659c-1.124,2.432 -3.59,7.712 -4.778,16.541c-0.419,3.166 -0.964,10.607 2.486,12.918c1.095,0.735 6.479,1.411 6.967,1.133c1.353,-0.763 2.728,-6.933 4.733,-10.17l-0,-0.022c0.454,-0.773 0.741,-1.221 1.49,-1.665c0.773,-0.457 1.982,-0.37 4.079,-0.37l13.238,0c2.097,0 3.306,-0.087 4.079,0.37c0.749,0.443 1.036,0.892 1.49,1.665l0,0.022c2.005,3.237 3.38,9.408 4.733,10.17c0.488,0.278 5.873,-0.398 6.968,-1.133c3.449,-2.311 2.905,-9.752 2.486,-12.918c-1.189,-8.829 -3.655,-14.109 -4.779,-16.541l0,0.001Zm-2.15,-19.807l-2.293,3.249c5.229,0.995 9.797,4.167 12.555,8.719l2.292,-3.249c-3.038,-4.282 -7.481,-7.367 -12.554,-8.719Zm-4.24,6.009l-2.294,3.249c5.229,0.994 9.796,4.165 12.554,8.718l2.294,-3.25c-3.038,-4.281 -7.481,-7.366 -12.554,-8.717Zm-28.117,3.362l-2.293,-3.249c-5.073,1.352 -9.516,4.437 -12.554,8.719l2.292,3.249c2.758,-4.553 7.326,-7.725 12.555,-8.719Zm-4.241,-6.008l-2.293,-3.25c-5.074,1.352 -9.517,4.439 -12.555,8.722l2.294,3.249c2.758,-4.553 7.325,-7.725 12.554,-8.72l-0,-0.001Z"/></g></svg>