<?xml version="1.0" encoding="UTF-8" standalone="no"?><!DOCTYPE svg PUBLIC "-//W3C//DTD SVG 1.1//EN" "http://www.w3.org/Graphics/SVG/1.1/DTD/svg11.dtd"><svg width="100%" height="100%" viewBox="0 0 64 64" version="1.1" xmlns="http://www.w3.org/2000/svg" xmlns:xlink="http://www.w3.org/1999/xlink" xml:space="preserve" xmlns:serif="http://www.serif.com/" style="fill-rule:evenodd;clip-rule:evenodd;stroke-linejoin:round;stroke-miterlimit:2;"><rect id="icon-feature-ps5-haptic" x="0" y="0" width="64" height="64" style="fill:none;"/><g id="icon-feature-ps5-haptic1" serif:id="icon-feature-ps5-haptic"><path d="M59.673,38.478c-0.724,-6.063 -2.414,-11.971 -5.006,-17.5c-0.734,-1.631 -3.263,-6.393 -9.232,-6.393c-2.373,-0 -4.477,1.321 -6.582,2.691c0,0 -3.522,-0.252 -6.841,-0.252c-3.319,-0 -6.858,0.252 -6.858,0.252c-2.104,-1.37 -4.208,-2.691 -6.582,-2.691c-5.929,-0 -8.497,4.787 -9.231,6.393c-2.596,5.528 -4.29,11.437 -5.017,17.5c-0.439,3.352 -1.01,11.222 2.611,13.669c1.15,0.815 6.801,1.492 7.339,1.199c1.411,-0.816 2.855,-7.34 4.959,-10.757c0.34,-0.727 0.884,-1.339 1.566,-1.761c0.815,-0.49 2.079,-0.392 4.281,-0.392l13.864,0c2.202,0 3.466,-0.098 4.281,0.392c0.681,0.422 1.227,1.034 1.566,1.761c2.097,3.426 3.538,9.949 4.958,10.757c0.513,0.293 6.165,-0.417 7.34,-1.199c3.596,-2.447 3.025,-10.317 2.585,-13.669l-0.001,0Zm-40.774,-10.83l-2.643,-0c-0.345,-0.103 -0.583,-0.422 -0.583,-0.782c-0,-0.36 0.238,-0.68 0.583,-0.782l2.609,-0c0.311,0.005 0.61,-0.126 0.816,-0.359l1.632,-1.779c1.121,-1.223 3.036,-1.34 4.297,-0.261l1.411,1.192c0.445,0.374 1.096,0.374 1.542,-0l1.793,-1.46c1.131,-0.927 2.775,-0.927 3.907,0l1.867,1.483c0.441,0.372 1.084,0.372 1.525,0l1.517,-1.215c1.264,-1.08 3.187,-0.953 4.297,0.286l1.633,1.761c0.207,0.23 0.505,0.358 0.814,0.352l2.822,-0c0.347,0.1 0.588,0.421 0.588,0.782c0,0.362 -0.241,0.683 -0.588,0.783l-2.855,0c-0.703,-0.004 -1.373,-0.299 -1.85,-0.816l-1.633,-1.761c-0.602,-0.672 -1.645,-0.742 -2.331,-0.155l-1.443,1.207c-0.963,0.801 -2.373,0.801 -3.336,0l-1.867,-1.493c-0.616,-0.501 -1.506,-0.501 -2.121,0l-1.793,1.461c-0.966,0.817 -2.395,0.817 -3.36,-0l-1.411,-1.192c-0.685,-0.585 -1.726,-0.519 -2.333,0.147l-1.631,1.779c-0.489,0.529 -1.18,0.827 -1.9,0.822l0.025,-0Zm30.744,6.81c0.011,0.275 -0.089,0.543 -0.277,0.743c-0.178,0.2 -0.434,0.316 -0.702,0.318l-1.158,-0c-0.774,-0.003 -1.513,-0.329 -2.038,-0.897l-2.08,-2.162c-0.606,-0.677 -1.655,-0.749 -2.348,-0.163l-1.633,1.346c-1.122,0.953 -2.779,0.97 -3.921,0.041l-2.072,-1.632c-0.618,-0.509 -1.518,-0.509 -2.136,-0l-1.998,1.632c-1.135,0.959 -2.813,0.959 -3.947,-0l-1.558,-1.387c-0.691,-0.586 -1.736,-0.521 -2.348,0.147l-2.033,2.169c-0.516,0.578 -1.247,0.92 -2.022,0.946l-1.036,0c-0.553,-0.009 -1.003,-0.467 -1.003,-1.019c0,-0.008 0.001,-0.016 0.001,-0.024c-0.002,-0.022 -0.002,-0.044 -0.002,-0.065c-0,-0.557 0.448,-1.019 1.005,-1.036l1.035,-0c0.231,-0.018 0.445,-0.126 0.596,-0.302l2.03,-2.161c1.312,-1.433 3.558,-1.561 5.024,-0.286l1.565,1.323c0.428,0.365 1.065,0.365 1.493,-0l1.998,-1.633c1.323,-1.076 3.236,-1.076 4.559,0l2.071,1.633c0.428,0.357 1.056,0.357 1.484,-0l1.631,-1.347c1.476,-1.252 3.71,-1.103 5.007,0.334l2.031,2.178c0.156,0.173 0.379,0.271 0.612,0.269l1.166,0c0.55,0.022 0.988,0.485 0.978,1.035l0.026,0Z"/></g></svg>