<?xml version="1.0" encoding="UTF-8" standalone="no"?><!DOCTYPE svg PUBLIC "-//W3C//DTD SVG 1.1//EN" "http://www.w3.org/Graphics/SVG/1.1/DTD/svg11.dtd"><svg width="100%" height="100%" viewBox="0 0 64 64" version="1.1" xmlns="http://www.w3.org/2000/svg" xmlns:xlink="http://www.w3.org/1999/xlink" xml:space="preserve" xmlns:serif="http://www.serif.com/" style="fill-rule:evenodd;clip-rule:evenodd;stroke-linejoin:round;stroke-miterlimit:2;"><rect id="icon-feature-xbox-delivery" x="0" y="0" width="64" height="64" style="fill:none;"/><g><path d="M55.095,18.197l-5.845,-6.522l-34.686,0l-5.845,6.522l0.067,34.128l46.495,-0l-0.202,-34.128l0.016,-0Zm-39.28,-3.717l32.218,-0l2.602,2.957l-37.574,-0l2.754,-2.957Zm-4.19,34.888l-0.068,-29.059l40.734,-0l0.067,29.059l-40.733,0Z" style="fill-rule:nonzero;"/><path d="M40.397,32.76l-2.061,-2.128l-4.951,4.882l0,-12.232l-2.939,0l-0,12.232l-4.951,-4.882l-2.061,2.061l8.515,8.515l8.448,-8.448Z" style="fill-rule:nonzero;"/><rect x="23.096" y="43.539" width="17.79" height="2.957"/></g></svg>